<?xml version="1.0" encoding="UTF-8" standalone="no"?>
<!DOCTYPE svg PUBLIC "-//W3C//DTD SVG 1.0//EN"
 "http://www.w3.org/TR/2001/REC-SVG-20010904/DTD/svg10.dtd" [
 <!ATTLIST svg xmlns:xlink CDATA #FIXED "http://www.w3.org/1999/xlink">
]>
<!-- Generated by Graphviz version 2.20.2 (Wed Jul &#160;9 19:59:08 GMT 2008)
     For user: wolff -->
<!-- Title: GRM Pages: 1 -->
<svg width="2014pt" height="594pt"
 viewBox="0.00 0.00 2014.00 594.00" xmlns="http://www.w3.org/2000/svg" xmlns:xlink="http://www.w3.org/1999/xlink">
<g id="graph0" class="graph" transform="scale(1 1) rotate(0) translate(4 590)">
<title>GRM</title>
<polygon style="fill:white;stroke:white;" points="-4,4 -4,-590 2010,-590 2010,4 -4,4"/>
<!-- S0_0 -->
<g id="node1" class="node"><title>S0_0</title>
<ellipse style="fill:none;stroke:black;" cx="38" cy="-165" rx="18" ry="18"/>
<text text-anchor="middle" x="38" y="-160.4" style="font-family:Times New Roman;font-size:14.00;">S</text>
</g>
<!-- S0_0&#45;&gt;S0_0 -->
<g id="edge2" class="edge"><title>S0_0&#45;&gt;S0_0</title>
<path style="fill:none;stroke:black;" d="M25,-177C18,-189 22,-201 38,-201 50,-201 55,-195 54,-187"/>
<polygon style="fill:black;stroke:black;" points="57.2259,-185.573 51,-177 50.5212,-187.584 57.2259,-185.573"/>
<text text-anchor="middle" x="38" y="-204.4" style="font-family:Times New Roman;font-size:14.00;">&lt;PAU&gt; : &#45; | 0</text>
</g>
<!-- S0_2 -->
<g id="node3" class="node"><title>S0_2</title>
<ellipse style="fill:none;stroke:black;" cx="218" cy="-165" rx="18" ry="18"/>
</g>
<!-- S0_0&#45;&gt;S0_2 -->
<g id="edge6" class="edge"><title>S0_0&#45;&gt;S0_2</title>
<path style="fill:none;stroke:black;" d="M56,-165C88,-165 153,-165 190,-165"/>
<polygon style="fill:black;stroke:black;" points="190,-168.5 200,-165 190,-161.5 190,-168.5"/>
<text text-anchor="middle" x="128" y="-168.4" style="font-family:Times New Roman;font-size:14.00;">&#45; : FVR[RECTDIM | 0</text>
</g>
<!-- S0_1 -->
<g id="node2" class="node"><title>S0_1</title>
<ellipse style="fill:none;stroke:black;" cx="1968" cy="-187" rx="18" ry="18"/>
<ellipse style="fill:none;stroke:black;" cx="1968" cy="-187" rx="22" ry="22"/>
<text text-anchor="middle" x="1968" y="-182.4" style="font-family:Times New Roman;font-size:14.00;">F</text>
</g>
<!-- S0_1&#45;&gt;S0_1 -->
<g id="edge4" class="edge"><title>S0_1&#45;&gt;S0_1</title>
<path style="fill:none;stroke:black;" d="M1959,-207C1958,-218 1961,-227 1968,-227 1973,-227 1975,-223 1977,-217"/>
<polygon style="fill:black;stroke:black;" points="1980.5,-217 1977,-207 1973.5,-217 1980.5,-217"/>
<text text-anchor="middle" x="1968" y="-230.4" style="font-family:Times New Roman;font-size:14.00;">&lt;PAU&gt; : &#45; | 0</text>
</g>
<!-- S0_5 -->
<g id="node6" class="node"><title>S0_5</title>
<ellipse style="fill:none;stroke:black;" cx="370" cy="-191" rx="18" ry="18"/>
</g>
<!-- S0_2&#45;&gt;S0_5 -->
<g id="edge10" class="edge"><title>S0_2&#45;&gt;S0_5</title>
<path style="fill:none;stroke:black;" d="M236,-168C262,-172 311,-181 342,-186"/>
<polygon style="fill:black;stroke:black;" points="341.508,-189.471 352,-188 342.881,-182.607 341.508,-189.471"/>
<text text-anchor="middle" x="294" y="-187.4" style="font-family:Times New Roman;font-size:14.00;">&#45; : [side=width | 0</text>
</g>
<!-- S0_7 -->
<g id="node8" class="node"><title>S0_7</title>
<ellipse style="fill:none;stroke:black;" cx="370" cy="-137" rx="18" ry="18"/>
</g>
<!-- S0_2&#45;&gt;S0_7 -->
<g id="edge16" class="edge"><title>S0_2&#45;&gt;S0_7</title>
<path style="fill:none;stroke:black;" d="M232,-154C236,-151 240,-149 244,-148 276,-138 316,-135 342,-136"/>
<polygon style="fill:black;stroke:black;" points="342,-139.5 352,-136 342,-132.5 342,-139.5"/>
<text text-anchor="middle" x="294" y="-151.4" style="font-family:Times New Roman;font-size:14.00;">&#45; : [side=length | 0</text>
</g>
<!-- S0_3 -->
<g id="node4" class="node"><title>S0_3</title>
<ellipse style="fill:none;stroke:black;" cx="576" cy="-165" rx="18" ry="18"/>
</g>
<!-- S0_9 -->
<g id="node10" class="node"><title>S0_9</title>
<ellipse style="fill:none;stroke:black;" cx="688" cy="-165" rx="18" ry="18"/>
</g>
<!-- S0_3&#45;&gt;S0_9 -->
<g id="edge22" class="edge"><title>S0_3&#45;&gt;S0_9</title>
<path style="fill:none;stroke:black;" d="M594,-165C612,-165 639,-165 660,-165"/>
<polygon style="fill:black;stroke:black;" points="660,-168.5 670,-165 660,-161.5 660,-168.5"/>
<text text-anchor="middle" x="632" y="-168.4" style="font-family:Times New Roman;font-size:14.00;">&#45; : [val= | 0</text>
</g>
<!-- S0_4 -->
<g id="node5" class="node"><title>S0_4</title>
<ellipse style="fill:none;stroke:black;" cx="1876" cy="-187" rx="18" ry="18"/>
</g>
<!-- S0_4&#45;&gt;S0_1 -->
<g id="edge8" class="edge"><title>S0_4&#45;&gt;S0_1</title>
<path style="fill:none;stroke:black;" d="M1894,-187C1906,-187 1922,-187 1936,-187"/>
<polygon style="fill:black;stroke:black;" points="1936,-190.5 1946,-187 1936,-183.5 1936,-190.5"/>
<text text-anchor="middle" x="1920" y="-190.4" style="font-family:Times New Roman;font-size:14.00;">&#45; : ] | 0</text>
</g>
<!-- S0_6 -->
<g id="node7" class="node"><title>S0_6</title>
<ellipse style="fill:none;stroke:black;" cx="488" cy="-191" rx="18" ry="18"/>
</g>
<!-- S0_5&#45;&gt;S0_6 -->
<g id="edge12" class="edge"><title>S0_5&#45;&gt;S0_6</title>
<path style="fill:none;stroke:black;" d="M388,-191C407,-191 438,-191 460,-191"/>
<polygon style="fill:black;stroke:black;" points="460,-194.5 470,-191 460,-187.5 460,-194.5"/>
<text text-anchor="middle" x="429" y="-194.4" style="font-family:Times New Roman;font-size:14.00;">breite : &#45; | 0</text>
</g>
<!-- S0_6&#45;&gt;S0_3 -->
<g id="edge14" class="edge"><title>S0_6&#45;&gt;S0_3</title>
<path style="fill:none;stroke:black;" d="M505,-186C518,-182 535,-177 549,-173"/>
<polygon style="fill:black;stroke:black;" points="550.427,-176.226 559,-170 548.416,-169.521 550.427,-176.226"/>
<text text-anchor="middle" x="532" y="-185.4" style="font-family:Times New Roman;font-size:14.00;">&#45; : ] | 0</text>
</g>
<!-- S0_8 -->
<g id="node9" class="node"><title>S0_8</title>
<ellipse style="fill:none;stroke:black;" cx="488" cy="-137" rx="18" ry="18"/>
</g>
<!-- S0_7&#45;&gt;S0_8 -->
<g id="edge18" class="edge"><title>S0_7&#45;&gt;S0_8</title>
<path style="fill:none;stroke:black;" d="M388,-137C407,-137 438,-137 460,-137"/>
<polygon style="fill:black;stroke:black;" points="460,-140.5 470,-137 460,-133.5 460,-140.5"/>
<text text-anchor="middle" x="429" y="-140.4" style="font-family:Times New Roman;font-size:14.00;">laenge : &#45; | 0</text>
</g>
<!-- S0_8&#45;&gt;S0_3 -->
<g id="edge20" class="edge"><title>S0_8&#45;&gt;S0_3</title>
<path style="fill:none;stroke:black;" d="M506,-140C519,-143 536,-147 550,-152 550,-152 550,-152 551,-152"/>
<polygon style="fill:black;stroke:black;" points="549.44,-155.137 560,-156 552.283,-148.74 549.44,-155.137"/>
<text text-anchor="middle" x="532" y="-155.4" style="font-family:Times New Roman;font-size:14.00;">&#45; : ] | 0</text>
</g>
<!-- S0_10 -->
<g id="node11" class="node"><title>S0_10</title>
<ellipse style="fill:none;stroke:black;" cx="810" cy="-165" rx="18" ry="18"/>
</g>
<!-- S0_9&#45;&gt;S0_10 -->
<g id="edge42" class="edge"><title>S0_9&#45;&gt;S0_10</title>
<path style="fill:none;stroke:black;" d="M690,-183C694,-222 704,-310 714,-319 738,-339 761,-339 784,-319 794,-311 803,-235 807,-193"/>
<polygon style="fill:black;stroke:black;" points="810.488,-193.299 808,-183 803.522,-192.602 810.488,-193.299"/>
<text text-anchor="middle" x="749" y="-337.4" style="font-family:Times New Roman;font-size:14.00;">null : 0 | 0</text>
</g>
<!-- S0_9&#45;&gt;S0_10 -->
<g id="edge44" class="edge"><title>S0_9&#45;&gt;S0_10</title>
<path style="fill:none;stroke:black;" d="M690,-183C692,-213 699,-268 714,-280 739,-299 760,-299 784,-280 797,-269 804,-224 808,-193"/>
<polygon style="fill:black;stroke:black;" points="811.488,-193.299 809,-183 804.522,-192.602 811.488,-193.299"/>
<text text-anchor="middle" x="749" y="-297.4" style="font-family:Times New Roman;font-size:14.00;">eins : 1 | 0</text>
</g>
<!-- S0_9&#45;&gt;S0_10 -->
<g id="edge46" class="edge"><title>S0_9&#45;&gt;S0_10</title>
<path style="fill:none;stroke:black;" d="M692,-183C696,-203 705,-234 714,-241 740,-259 759,-259 784,-241 792,-235 800,-212 804,-193"/>
<polygon style="fill:black;stroke:black;" points="807.471,-193.492 806,-183 800.607,-192.119 807.471,-193.492"/>
<text text-anchor="middle" x="749" y="-257.4" style="font-family:Times New Roman;font-size:14.00;">zwei : 2 | 0</text>
</g>
<!-- S0_9&#45;&gt;S0_10 -->
<g id="edge48" class="edge"><title>S0_9&#45;&gt;S0_10</title>
<path style="fill:none;stroke:black;" d="M696,-182C700,-189 706,-197 714,-202 742,-216 757,-216 784,-202 789,-199 793,-195 797,-190"/>
<polygon style="fill:black;stroke:black;" points="799.8,-192.1 803,-182 794.2,-187.9 799.8,-192.1"/>
<text text-anchor="middle" x="749" y="-215.4" style="font-family:Times New Roman;font-size:14.00;">drei : 3 | 0</text>
</g>
<!-- S0_9&#45;&gt;S0_10 -->
<g id="edge50" class="edge"><title>S0_9&#45;&gt;S0_10</title>
<path style="fill:none;stroke:black;" d="M706,-165C726,-165 758,-165 782,-165"/>
<polygon style="fill:black;stroke:black;" points="782,-168.5 792,-165 782,-161.5 782,-168.5"/>
<text text-anchor="middle" x="749" y="-168.4" style="font-family:Times New Roman;font-size:14.00;">vier : 4 | 0</text>
</g>
<!-- S0_9&#45;&gt;S0_10 -->
<g id="edge52" class="edge"><title>S0_9&#45;&gt;S0_10</title>
<path style="fill:none;stroke:black;" d="M701,-152C705,-149 710,-146 714,-145 744,-135 755,-135 784,-145 786,-145 787,-146 788,-146"/>
<polygon style="fill:black;stroke:black;" points="786.738,-149.365 797,-152 790.621,-143.541 786.738,-149.365"/>
<text text-anchor="middle" x="749" y="-148.4" style="font-family:Times New Roman;font-size:14.00;">fuenf : 5 | 0</text>
</g>
<!-- S0_9&#45;&gt;S0_10 -->
<g id="edge54" class="edge"><title>S0_9&#45;&gt;S0_10</title>
<path style="fill:none;stroke:black;" d="M693,-147C697,-137 704,-124 714,-117 741,-102 758,-102 784,-117 792,-122 797,-130 801,-138"/>
<polygon style="fill:black;stroke:black;" points="797.74,-139.283 805,-147 804.137,-136.44 797.74,-139.283"/>
<text text-anchor="middle" x="749" y="-123.4" style="font-family:Times New Roman;font-size:14.00;">sechs : 6 | 0</text>
</g>
<!-- S0_9&#45;&gt;S0_10 -->
<g id="edge56" class="edge"><title>S0_9&#45;&gt;S0_10</title>
<path style="fill:none;stroke:black;" d="M692,-147C696,-126 705,-93 714,-86 740,-68 759,-68 784,-86 793,-92 800,-117 805,-137"/>
<polygon style="fill:black;stroke:black;" points="801.607,-137.881 807,-147 808.471,-136.508 801.607,-137.881"/>
<text text-anchor="middle" x="749" y="-93.4" style="font-family:Times New Roman;font-size:14.00;">sieben : 7 | 0</text>
</g>
<!-- S0_9&#45;&gt;S0_10 -->
<g id="edge58" class="edge"><title>S0_9&#45;&gt;S0_10</title>
<path style="fill:none;stroke:black;" d="M690,-147C692,-118 700,-65 714,-53 739,-34 760,-34 784,-53 797,-64 804,-107 808,-137"/>
<polygon style="fill:black;stroke:black;" points="804.522,-137.398 809,-147 811.488,-136.701 804.522,-137.398"/>
<text text-anchor="middle" x="749" y="-59.4" style="font-family:Times New Roman;font-size:14.00;">acht : 8 | 0</text>
</g>
<!-- S0_9&#45;&gt;S0_10 -->
<g id="edge60" class="edge"><title>S0_9&#45;&gt;S0_10</title>
<path style="fill:none;stroke:black;" d="M688,-147C690,-112 695,-36 714,-19 738,-0 761,-0 784,-19 802,-34 808,-99 810,-137"/>
<polygon style="fill:black;stroke:black;" points="806.5,-137 810,-147 813.5,-137 806.5,-137"/>
<text text-anchor="middle" x="749" y="-25.4" style="font-family:Times New Roman;font-size:14.00;">neun : 2 | 0</text>
</g>
<!-- S0_11 -->
<g id="node12" class="node"><title>S0_11</title>
<ellipse style="fill:none;stroke:black;" cx="898" cy="-165" rx="18" ry="18"/>
<text text-anchor="middle" x="898" y="-160.4" style="font-family:Times New Roman;font-size:14.00;">A</text>
</g>
<!-- S0_10&#45;&gt;S0_11 -->
<g id="edge24" class="edge"><title>S0_10&#45;&gt;S0_11</title>
<path style="fill:none;stroke:black;" d="M828,-165C840,-165 856,-165 870,-165"/>
<polygon style="fill:black;stroke:black;" points="870,-168.5 880,-165 870,-161.5 870,-168.5"/>
<text text-anchor="middle" x="854" y="-168.4" style="font-family:Times New Roman;font-size:14.00;">&#45; : ] | 0</text>
</g>
<!-- S0_12 -->
<g id="node13" class="node"><title>S0_12</title>
<ellipse style="fill:none;stroke:black;" cx="1014" cy="-195" rx="18" ry="18"/>
</g>
<!-- S0_11&#45;&gt;S0_12 -->
<g id="edge26" class="edge"><title>S0_11&#45;&gt;S0_12</title>
<path style="fill:none;stroke:black;" d="M916,-170C934,-174 964,-182 986,-188"/>
<polygon style="fill:black;stroke:black;" points="985.508,-191.471 996,-190 986.881,-184.607 985.508,-191.471"/>
<text text-anchor="middle" x="956" y="-189.4" style="font-family:Times New Roman;font-size:14.00;">&#45; : [val=. | 0</text>
</g>
<!-- S0_17 -->
<g id="node18" class="node"><title>S0_17</title>
<ellipse style="fill:none;stroke:black;" cx="1550" cy="-187" rx="18" ry="18"/>
<text text-anchor="middle" x="1550" y="-182.4" style="font-family:Times New Roman;font-size:14.00;">C</text>
</g>
<!-- S0_11&#45;&gt;S0_17 -->
<g id="edge62" class="edge"><title>S0_11&#45;&gt;S0_17</title>
<path style="fill:none;stroke:black;" d="M916,-161C938,-156 979,-149 1014,-149 1014,-149 1014,-149 1462,-149 1486,-149 1510,-160 1527,-171"/>
<polygon style="fill:black;stroke:black;" points="1524.66,-173.668 1535,-176 1528.38,-167.732 1524.66,-173.668"/>
<text text-anchor="middle" x="1228" y="-152.4" style="font-family:Times New Roman;font-size:14.00;">&#45; : &#45; | 0</text>
</g>
<!-- S0_13 -->
<g id="node14" class="node"><title>S0_13</title>
<ellipse style="fill:none;stroke:black;" cx="1140" cy="-198" rx="18" ry="18"/>
</g>
<!-- S0_12&#45;&gt;S0_13 -->
<g id="edge28" class="edge"><title>S0_12&#45;&gt;S0_13</title>
<path style="fill:none;stroke:black;" d="M1032,-195C1053,-196 1087,-197 1112,-198"/>
<polygon style="fill:black;stroke:black;" points="1112,-201.5 1122,-198 1112,-194.5 1112,-201.5"/>
<text text-anchor="middle" x="1077" y="-199.4" style="font-family:Times New Roman;font-size:14.00;">komma : &#45; | 0</text>
</g>
<!-- S0_14 -->
<g id="node15" class="node"><title>S0_14</title>
<ellipse style="fill:none;stroke:black;" cx="1228" cy="-201" rx="18" ry="18"/>
<text text-anchor="middle" x="1228" y="-196.4" style="font-family:Times New Roman;font-size:14.00;">B</text>
</g>
<!-- S0_13&#45;&gt;S0_14 -->
<g id="edge30" class="edge"><title>S0_13&#45;&gt;S0_14</title>
<path style="fill:none;stroke:black;" d="M1158,-199C1170,-200 1186,-200 1200,-200"/>
<polygon style="fill:black;stroke:black;" points="1199.7,-203.488 1210,-201 1200.4,-196.522 1199.7,-203.488"/>
<text text-anchor="middle" x="1184" y="-202.4" style="font-family:Times New Roman;font-size:14.00;">&#45; : ] | 0</text>
</g>
<!-- S0_15 -->
<g id="node16" class="node"><title>S0_15</title>
<ellipse style="fill:none;stroke:black;" cx="1340" cy="-382" rx="18" ry="18"/>
</g>
<!-- S0_14&#45;&gt;S0_15 -->
<g id="edge32" class="edge"><title>S0_14&#45;&gt;S0_15</title>
<path style="fill:none;stroke:black;" d="M1238,-216C1257,-247 1302,-320 1326,-358"/>
<polygon style="fill:black;stroke:black;" points="1323.08,-359.958 1331,-367 1329.2,-356.559 1323.08,-359.958"/>
<text text-anchor="middle" x="1284" y="-340.4" style="font-family:Times New Roman;font-size:14.00;">&#45; : [val= | 0</text>
</g>
<!-- S0_16 -->
<g id="node17" class="node"><title>S0_16</title>
<ellipse style="fill:none;stroke:black;" cx="1462" cy="-382" rx="18" ry="18"/>
</g>
<!-- S0_15&#45;&gt;S0_16 -->
<g id="edge64" class="edge"><title>S0_15&#45;&gt;S0_16</title>
<path style="fill:none;stroke:black;" d="M1341,-400C1345,-442 1355,-545 1366,-555 1390,-575 1413,-575 1436,-555 1447,-546 1456,-456 1460,-410"/>
<polygon style="fill:black;stroke:black;" points="1463.49,-410.299 1461,-400 1456.52,-409.602 1463.49,-410.299"/>
<text text-anchor="middle" x="1401" y="-573.4" style="font-family:Times New Roman;font-size:14.00;">null : 0 | 0</text>
</g>
<!-- S0_15&#45;&gt;S0_16 -->
<g id="edge66" class="edge"><title>S0_15&#45;&gt;S0_16</title>
<path style="fill:none;stroke:black;" d="M1341,-400C1343,-433 1349,-501 1366,-516 1391,-535 1412,-535 1436,-516 1452,-502 1459,-445 1461,-410"/>
<polygon style="fill:black;stroke:black;" points="1464.5,-410 1461,-400 1457.5,-410 1464.5,-410"/>
<text text-anchor="middle" x="1401" y="-533.4" style="font-family:Times New Roman;font-size:14.00;">eins : 1 | 0</text>
</g>
<!-- S0_15&#45;&gt;S0_16 -->
<g id="edge68" class="edge"><title>S0_15&#45;&gt;S0_16</title>
<path style="fill:none;stroke:black;" d="M1342,-400C1346,-425 1354,-467 1366,-477 1391,-495 1412,-495 1436,-477 1447,-468 1454,-435 1458,-410"/>
<polygon style="fill:black;stroke:black;" points="1461.47,-410.492 1460,-400 1454.61,-409.119 1461.47,-410.492"/>
<text text-anchor="middle" x="1401" y="-493.4" style="font-family:Times New Roman;font-size:14.00;">zwei : 2 | 0</text>
</g>
<!-- S0_15&#45;&gt;S0_16 -->
<g id="edge70" class="edge"><title>S0_15&#45;&gt;S0_16</title>
<path style="fill:none;stroke:black;" d="M1343,-400C1346,-413 1353,-430 1366,-438 1393,-454 1410,-454 1436,-438 1446,-432 1452,-420 1456,-410"/>
<polygon style="fill:black;stroke:black;" points="1459.48,-410.584 1459,-400 1452.77,-408.573 1459.48,-410.584"/>
<text text-anchor="middle" x="1401" y="-453.4" style="font-family:Times New Roman;font-size:14.00;">drei : 3 | 0</text>
</g>
<!-- S0_15&#45;&gt;S0_16 -->
<g id="edge72" class="edge"><title>S0_15&#45;&gt;S0_16</title>
<path style="fill:none;stroke:black;" d="M1354,-393C1358,-396 1362,-398 1366,-399 1396,-407 1407,-407 1436,-399 1437,-399 1438,-398 1439,-398"/>
<polygon style="fill:black;stroke:black;" points="1440.96,-400.916 1448,-393 1437.56,-394.797 1440.96,-400.916"/>
<text text-anchor="middle" x="1401" y="-408.4" style="font-family:Times New Roman;font-size:14.00;">vier : 4 | 0</text>
</g>
<!-- S0_15&#45;&gt;S0_16 -->
<g id="edge74" class="edge"><title>S0_15&#45;&gt;S0_16</title>
<path style="fill:none;stroke:black;" d="M1358,-377C1360,-377 1363,-376 1366,-376 1394,-372 1404,-372 1435,-376"/>
<polygon style="fill:black;stroke:black;" points="1434.7,-379.488 1445,-377 1435.4,-372.522 1434.7,-379.488"/>
<text text-anchor="middle" x="1401" y="-379.4" style="font-family:Times New Roman;font-size:14.00;">fuenf : 5 | 0</text>
</g>
<!-- S0_15&#45;&gt;S0_16 -->
<g id="edge76" class="edge"><title>S0_15&#45;&gt;S0_16</title>
<path style="fill:none;stroke:black;" d="M1349,-366C1354,-361 1359,-355 1366,-352 1395,-339 1408,-339 1436,-352 1440,-354 1443,-356 1446,-358"/>
<polygon style="fill:black;stroke:black;" points="1443.78,-360.779 1453,-366 1449.05,-356.169 1443.78,-360.779"/>
<text text-anchor="middle" x="1401" y="-355.4" style="font-family:Times New Roman;font-size:14.00;">sechs : 6 | 0</text>
</g>
<!-- S0_15&#45;&gt;S0_16 -->
<g id="edge78" class="edge"><title>S0_15&#45;&gt;S0_16</title>
<path style="fill:none;stroke:black;" d="M1342,-364C1345,-350 1352,-330 1366,-321 1392,-303 1411,-303 1436,-321 1448,-328 1454,-342 1458,-354"/>
<polygon style="fill:black;stroke:black;" points="1454.61,-354.881 1460,-364 1461.47,-353.508 1454.61,-354.881"/>
<text text-anchor="middle" x="1401" y="-324.4" style="font-family:Times New Roman;font-size:14.00;">sieben : 7 | 0</text>
</g>
<!-- S0_15&#45;&gt;S0_16 -->
<g id="edge80" class="edge"><title>S0_15&#45;&gt;S0_16</title>
<path style="fill:none;stroke:black;" d="M1342,-364C1346,-339 1354,-295 1366,-286 1391,-267 1412,-267 1436,-286 1447,-294 1454,-329 1458,-354"/>
<polygon style="fill:black;stroke:black;" points="1454.61,-354.881 1460,-364 1461.47,-353.508 1454.61,-354.881"/>
<text text-anchor="middle" x="1401" y="-289.4" style="font-family:Times New Roman;font-size:14.00;">acht : 8 | 0</text>
</g>
<!-- S0_15&#45;&gt;S0_16 -->
<g id="edge82" class="edge"><title>S0_15&#45;&gt;S0_16</title>
<path style="fill:none;stroke:black;" d="M1341,-364C1343,-331 1350,-264 1366,-251 1391,-231 1412,-231 1436,-251 1451,-263 1458,-319 1460,-354"/>
<polygon style="fill:black;stroke:black;" points="1456.52,-354.398 1461,-364 1463.49,-353.701 1456.52,-354.398"/>
<text text-anchor="middle" x="1401" y="-255.4" style="font-family:Times New Roman;font-size:14.00;">neun : 2 | 0</text>
</g>
<!-- S0_16&#45;&gt;S0_17 -->
<g id="edge34" class="edge"><title>S0_16&#45;&gt;S0_17</title>
<path style="fill:none;stroke:black;" d="M1470,-365C1485,-331 1520,-253 1539,-213"/>
<polygon style="fill:black;stroke:black;" points="1542.14,-214.56 1543,-204 1535.74,-211.717 1542.14,-214.56"/>
<text text-anchor="middle" x="1506" y="-326.4" style="font-family:Times New Roman;font-size:14.00;">&#45; : ] | 0</text>
</g>
<!-- S0_17&#45;&gt;S0_14 -->
<g id="edge84" class="edge"><title>S0_17&#45;&gt;S0_14</title>
<path style="fill:none;stroke:black;" d="M1532,-188C1478,-190 1321,-197 1256,-200"/>
<polygon style="fill:black;stroke:black;" points="1256,-196.5 1246,-200 1256,-203.5 1256,-196.5"/>
<text text-anchor="middle" x="1401" y="-196.4" style="font-family:Times New Roman;font-size:14.00;">&#45; : &#45; | 0</text>
</g>
<!-- S0_18 -->
<g id="node19" class="node"><title>S0_18</title>
<ellipse style="fill:none;stroke:black;" cx="1668" cy="-187" rx="18" ry="18"/>
</g>
<!-- S0_17&#45;&gt;S0_18 -->
<g id="edge36" class="edge"><title>S0_17&#45;&gt;S0_18</title>
<path style="fill:none;stroke:black;" d="M1568,-187C1587,-187 1618,-187 1640,-187"/>
<polygon style="fill:black;stroke:black;" points="1640,-190.5 1650,-187 1640,-183.5 1640,-190.5"/>
<text text-anchor="middle" x="1609" y="-190.4" style="font-family:Times New Roman;font-size:14.00;">&#45; : [unit= | 0</text>
</g>
<!-- S0_19 -->
<g id="node20" class="node"><title>S0_19</title>
<ellipse style="fill:none;stroke:black;" cx="1788" cy="-187" rx="18" ry="18"/>
</g>
<!-- S0_18&#45;&gt;S0_19 -->
<g id="edge38" class="edge"><title>S0_18&#45;&gt;S0_19</title>
<path style="fill:none;stroke:black;" d="M1686,-187C1706,-187 1737,-187 1760,-187"/>
<polygon style="fill:black;stroke:black;" points="1760,-190.5 1770,-187 1760,-183.5 1760,-190.5"/>
<text text-anchor="middle" x="1728" y="-190.4" style="font-family:Times New Roman;font-size:14.00;">meter : m | 0</text>
</g>
<!-- S0_19&#45;&gt;S0_4 -->
<g id="edge40" class="edge"><title>S0_19&#45;&gt;S0_4</title>
<path style="fill:none;stroke:black;" d="M1806,-187C1818,-187 1834,-187 1848,-187"/>
<polygon style="fill:black;stroke:black;" points="1848,-190.5 1858,-187 1848,-183.5 1848,-190.5"/>
<text text-anchor="middle" x="1832" y="-190.4" style="font-family:Times New Roman;font-size:14.00;">&#45; : ] | 0</text>
</g>
</g>
</svg>
