<?xml version="1.0" encoding="UTF-8" standalone="no"?>
<!DOCTYPE svg PUBLIC "-//W3C//DTD SVG 1.0//EN"
 "http://www.w3.org/TR/2001/REC-SVG-20010904/DTD/svg10.dtd" [
 <!ATTLIST svg xmlns:xlink CDATA #FIXED "http://www.w3.org/1999/xlink">
]>
<!-- Generated by Graphviz version 2.20.2 (Wed Jul &#160;9 19:59:08 GMT 2008)
     For user: wolff -->
<!-- Title: GRM Pages: 1 -->
<svg width="844pt" height="472pt"
 viewBox="0.00 0.00 844.00 472.00" xmlns="http://www.w3.org/2000/svg" xmlns:xlink="http://www.w3.org/1999/xlink">
<g id="graph0" class="graph" transform="scale(1 1) rotate(0) translate(4 468)">
<title>GRM</title>
<polygon style="fill:white;stroke:white;" points="-4,4 -4,-468 840,-468 840,4 -4,4"/>
<!-- S0_0 -->
<g id="node1" class="node"><title>S0_0</title>
<ellipse style="fill:none;stroke:black;" cx="38" cy="-300" rx="18" ry="18"/>
<text text-anchor="middle" x="38" y="-295.4" style="font-family:Times New Roman;font-size:14.00;">S</text>
</g>
<!-- S0_0&#45;&gt;S0_0 -->
<g id="edge2" class="edge"><title>S0_0&#45;&gt;S0_0</title>
<path style="fill:none;stroke:black;" d="M26,-314C22,-325 26,-336 38,-336 46,-336 51,-331 51,-324"/>
<polygon style="fill:black;stroke:black;" points="54.4778,-323.602 50,-314 47.5125,-324.299 54.4778,-323.602"/>
<text text-anchor="middle" x="38" y="-339.4" style="font-family:Times New Roman;font-size:14.00;">&lt;PAU&gt; : &#45; | 0</text>
</g>
<!-- S0_1 -->
<g id="node2" class="node"><title>S0_1</title>
<ellipse style="fill:none;stroke:black;" cx="798" cy="-384" rx="18" ry="18"/>
<ellipse style="fill:none;stroke:black;" cx="798" cy="-384" rx="22" ry="22"/>
<text text-anchor="middle" x="798" y="-379.4" style="font-family:Times New Roman;font-size:14.00;">F</text>
</g>
<!-- S0_0&#45;&gt;S0_1 -->
<g id="edge6" class="edge"><title>S0_0&#45;&gt;S0_1</title>
<path style="fill:none;stroke:black;" d="M45,-317C63,-355 112,-448 186,-448 186,-448 186,-448 652,-448 697,-448 744,-422 772,-404"/>
<polygon style="fill:black;stroke:black;" points="774.1,-406.8 780,-398 769.9,-401.2 774.1,-406.8"/>
<text text-anchor="middle" x="419" y="-451.4" style="font-family:Times New Roman;font-size:14.00;">ok : __SLEEP__ | 0</text>
</g>
<!-- S0_2 -->
<g id="node3" class="node"><title>S0_2</title>
<ellipse style="fill:none;stroke:black;" cx="186" cy="-261" rx="18" ry="18"/>
</g>
<!-- S0_0&#45;&gt;S0_2 -->
<g id="edge8" class="edge"><title>S0_0&#45;&gt;S0_2</title>
<path style="fill:none;stroke:black;" d="M56,-299C80,-297 125,-292 160,-278 161,-278 161,-277 162,-277"/>
<polygon style="fill:black;stroke:black;" points="163.958,-279.916 171,-272 160.559,-273.797 163.958,-279.916"/>
<text text-anchor="middle" x="112" y="-300.4" style="font-family:Times New Roman;font-size:14.00;">breite : breite | 0</text>
</g>
<!-- S0_0&#45;&gt;S0_2 -->
<g id="edge10" class="edge"><title>S0_0&#45;&gt;S0_2</title>
<path style="fill:none;stroke:black;" d="M44,-283C48,-274 54,-263 64,-258 94,-242 133,-247 159,-253"/>
<polygon style="fill:black;stroke:black;" points="158.508,-256.471 169,-255 159.881,-249.607 158.508,-256.471"/>
<text text-anchor="middle" x="112" y="-264.4" style="font-family:Times New Roman;font-size:14.00;">laenge : laenge | 0</text>
</g>
<!-- S0_1&#45;&gt;S0_1 -->
<g id="edge4" class="edge"><title>S0_1&#45;&gt;S0_1</title>
<path style="fill:none;stroke:black;" d="M785,-402C783,-413 787,-424 798,-424 805,-424 810,-419 811,-412"/>
<polygon style="fill:black;stroke:black;" points="814.5,-412 811,-402 807.5,-412 814.5,-412"/>
<text text-anchor="middle" x="798" y="-427.4" style="font-family:Times New Roman;font-size:14.00;">&lt;PAU&gt; : &#45; | 0</text>
</g>
<!-- S0_3 -->
<g id="node4" class="node"><title>S0_3</title>
<ellipse style="fill:none;stroke:black;" cx="336" cy="-222" rx="18" ry="18"/>
<text text-anchor="middle" x="336" y="-217.4" style="font-family:Times New Roman;font-size:14.00;">A</text>
</g>
<!-- S0_2&#45;&gt;S0_3 -->
<g id="edge22" class="edge"><title>S0_2&#45;&gt;S0_3</title>
<path style="fill:none;stroke:black;" d="M187,-279C189,-312 195,-380 212,-395 246,-422 277,-423 310,-395 321,-386 330,-296 334,-250"/>
<polygon style="fill:black;stroke:black;" points="337.488,-250.299 335,-240 330.522,-249.602 337.488,-250.299"/>
<text text-anchor="middle" x="261" y="-418.4" style="font-family:Times New Roman;font-size:14.00;">zwei : zwei | 0</text>
</g>
<!-- S0_2&#45;&gt;S0_3 -->
<g id="edge24" class="edge"><title>S0_2&#45;&gt;S0_3</title>
<path style="fill:none;stroke:black;" d="M188,-279C192,-304 200,-346 212,-356 230,-369 294,-369 310,-356 326,-342 333,-285 335,-250"/>
<polygon style="fill:black;stroke:black;" points="338.5,-250 335,-240 331.5,-250 338.5,-250"/>
<text text-anchor="middle" x="261" y="-368.4" style="font-family:Times New Roman;font-size:14.00;">drei : drei | 0</text>
</g>
<!-- S0_2&#45;&gt;S0_3 -->
<g id="edge26" class="edge"><title>S0_2&#45;&gt;S0_3</title>
<path style="fill:none;stroke:black;" d="M189,-279C192,-292 199,-309 212,-317 231,-328 293,-330 310,-317 321,-308 328,-275 332,-250"/>
<polygon style="fill:black;stroke:black;" points="335.471,-250.492 334,-240 328.607,-249.119 335.471,-250.492"/>
<text text-anchor="middle" x="261" y="-328.4" style="font-family:Times New Roman;font-size:14.00;">vier : vier | 0</text>
</g>
<!-- S0_2&#45;&gt;S0_3 -->
<g id="edge28" class="edge"><title>S0_2&#45;&gt;S0_3</title>
<path style="fill:none;stroke:black;" d="M200,-272C204,-275 208,-277 212,-278 254,-290 274,-301 310,-278 320,-272 326,-260 330,-250"/>
<polygon style="fill:black;stroke:black;" points="333.479,-250.584 333,-240 326.774,-248.573 333.479,-250.584"/>
<text text-anchor="middle" x="261" y="-293.4" style="font-family:Times New Roman;font-size:14.00;">fuenf : fuenf | 0</text>
</g>
<!-- S0_2&#45;&gt;S0_3 -->
<g id="edge30" class="edge"><title>S0_2&#45;&gt;S0_3</title>
<path style="fill:none;stroke:black;" d="M204,-257C207,-256 209,-256 212,-255 256,-247 269,-255 310,-239 311,-239 312,-238 313,-238"/>
<polygon style="fill:black;stroke:black;" points="314.958,-240.916 322,-233 311.559,-234.797 314.958,-240.916"/>
<text text-anchor="middle" x="261" y="-261.4" style="font-family:Times New Roman;font-size:14.00;">sechs : sechs | 0</text>
</g>
<!-- S0_2&#45;&gt;S0_3 -->
<g id="edge32" class="edge"><title>S0_2&#45;&gt;S0_3</title>
<path style="fill:none;stroke:black;" d="M192,-244C196,-235 203,-224 212,-219 242,-203 283,-208 309,-214"/>
<polygon style="fill:black;stroke:black;" points="308.416,-217.479 319,-217 310.427,-210.774 308.416,-217.479"/>
<text text-anchor="middle" x="261" y="-225.4" style="font-family:Times New Roman;font-size:14.00;">sieben : sieben | 0</text>
</g>
<!-- S0_2&#45;&gt;S0_3 -->
<g id="edge34" class="edge"><title>S0_2&#45;&gt;S0_3</title>
<path style="fill:none;stroke:black;" d="M190,-243C195,-224 204,-196 212,-189 248,-164 271,-170 310,-189 314,-191 318,-194 321,-198"/>
<polygon style="fill:black;stroke:black;" points="318.2,-200.1 327,-206 323.8,-195.9 318.2,-200.1"/>
<text text-anchor="middle" x="261" y="-195.4" style="font-family:Times New Roman;font-size:14.00;">acht : acht | 0</text>
</g>
<!-- S0_2&#45;&gt;S0_3 -->
<g id="edge36" class="edge"><title>S0_2&#45;&gt;S0_3</title>
<path style="fill:none;stroke:black;" d="M188,-243C191,-215 198,-164 212,-153 247,-127 275,-129 310,-153 317,-158 324,-177 329,-194"/>
<polygon style="fill:black;stroke:black;" points="325.774,-195.427 332,-204 332.479,-193.416 325.774,-195.427"/>
<text text-anchor="middle" x="261" y="-159.4" style="font-family:Times New Roman;font-size:14.00;">neun : neun | 0</text>
</g>
<!-- S0_2&#45;&gt;S0_3 -->
<g id="edge18" class="edge"><title>S0_2&#45;&gt;S0_3</title>
<path style="fill:none;stroke:black;" d="M188,-243C192,-204 202,-115 212,-106 246,-78 276,-79 310,-106 323,-117 330,-163 334,-194"/>
<polygon style="fill:black;stroke:black;" points="330.522,-194.398 335,-204 337.488,-193.701 330.522,-194.398"/>
<text text-anchor="middle" x="261" y="-114.4" style="font-family:Times New Roman;font-size:14.00;">null : null | 0</text>
</g>
<!-- S0_2&#45;&gt;S0_3 -->
<g id="edge20" class="edge"><title>S0_2&#45;&gt;S0_3</title>
<path style="fill:none;stroke:black;" d="M187,-243C190,-197 199,-78 212,-66 245,-38 277,-38 310,-66 320,-74 329,-151 333,-194"/>
<polygon style="fill:black;stroke:black;" points="329.522,-194.398 334,-204 336.488,-193.701 329.522,-194.398"/>
<text text-anchor="middle" x="261" y="-75.4" style="font-family:Times New Roman;font-size:14.00;">eins : eins | 0</text>
</g>
<!-- S0_4 -->
<g id="node5" class="node"><title>S0_4</title>
<ellipse style="fill:none;stroke:black;" cx="502" cy="-222" rx="18" ry="18"/>
<text text-anchor="middle" x="502" y="-217.4" style="font-family:Times New Roman;font-size:14.00;">B</text>
</g>
<!-- S0_3&#45;&gt;S0_4 -->
<g id="edge12" class="edge"><title>S0_3&#45;&gt;S0_4</title>
<path style="fill:none;stroke:black;" d="M354,-222C383,-222 439,-222 474,-222"/>
<polygon style="fill:black;stroke:black;" points="474,-225.5 484,-222 474,-218.5 474,-225.5"/>
<text text-anchor="middle" x="419" y="-225.4" style="font-family:Times New Roman;font-size:14.00;">komma : komma | 0</text>
</g>
<!-- S0_5 -->
<g id="node6" class="node"><title>S0_5</title>
<ellipse style="fill:none;stroke:black;" cx="652" cy="-222" rx="18" ry="18"/>
<text text-anchor="middle" x="652" y="-217.4" style="font-family:Times New Roman;font-size:14.00;">C</text>
</g>
<!-- S0_3&#45;&gt;S0_5 -->
<g id="edge16" class="edge"><title>S0_3&#45;&gt;S0_5</title>
<path style="fill:none;stroke:black;" d="M345,-206C382,-142 523,84 626,-8 640,-20 648,-139 651,-194"/>
<polygon style="fill:black;stroke:black;" points="647.5,-194 651,-204 654.5,-194 647.5,-194"/>
<text text-anchor="middle" x="502" y="-31.4" style="font-family:Times New Roman;font-size:14.00;">&#45; : &#45; | 0</text>
</g>
<!-- S0_4&#45;&gt;S0_5 -->
<g id="edge40" class="edge"><title>S0_4&#45;&gt;S0_5</title>
<path style="fill:none;stroke:black;" d="M503,-240C507,-282 517,-385 528,-395 562,-423 593,-423 626,-395 637,-386 646,-296 650,-250"/>
<polygon style="fill:black;stroke:black;" points="653.488,-250.299 651,-240 646.522,-249.602 653.488,-250.299"/>
<text text-anchor="middle" x="577" y="-419.4" style="font-family:Times New Roman;font-size:14.00;">null : null | 0</text>
</g>
<!-- S0_4&#45;&gt;S0_5 -->
<g id="edge42" class="edge"><title>S0_4&#45;&gt;S0_5</title>
<path style="fill:none;stroke:black;" d="M503,-240C505,-273 511,-341 528,-356 545,-369 610,-369 626,-356 642,-342 649,-285 651,-250"/>
<polygon style="fill:black;stroke:black;" points="654.5,-250 651,-240 647.5,-250 654.5,-250"/>
<text text-anchor="middle" x="577" y="-368.4" style="font-family:Times New Roman;font-size:14.00;">eins : eins | 0</text>
</g>
<!-- S0_4&#45;&gt;S0_5 -->
<g id="edge44" class="edge"><title>S0_4&#45;&gt;S0_5</title>
<path style="fill:none;stroke:black;" d="M504,-240C508,-265 516,-307 528,-317 546,-330 609,-330 626,-317 637,-308 644,-275 648,-250"/>
<polygon style="fill:black;stroke:black;" points="651.471,-250.492 650,-240 644.607,-249.119 651.471,-250.492"/>
<text text-anchor="middle" x="577" y="-329.4" style="font-family:Times New Roman;font-size:14.00;">zwei : zwei | 0</text>
</g>
<!-- S0_4&#45;&gt;S0_5 -->
<g id="edge46" class="edge"><title>S0_4&#45;&gt;S0_5</title>
<path style="fill:none;stroke:black;" d="M505,-240C508,-253 515,-270 528,-278 547,-289 608,-289 626,-278 636,-272 642,-260 646,-250"/>
<polygon style="fill:black;stroke:black;" points="649.479,-250.584 649,-240 642.774,-248.573 649.479,-250.584"/>
<text text-anchor="middle" x="577" y="-289.4" style="font-family:Times New Roman;font-size:14.00;">drei : drei | 0</text>
</g>
<!-- S0_4&#45;&gt;S0_5 -->
<g id="edge48" class="edge"><title>S0_4&#45;&gt;S0_5</title>
<path style="fill:none;stroke:black;" d="M516,-234C520,-236 524,-238 528,-239 570,-252 585,-252 626,-239 627,-239 628,-239 629,-238"/>
<polygon style="fill:black;stroke:black;" points="630.283,-241.26 638,-234 627.44,-234.863 630.283,-241.26"/>
<text text-anchor="middle" x="577" y="-253.4" style="font-family:Times New Roman;font-size:14.00;">vier : vier | 0</text>
</g>
<!-- S0_4&#45;&gt;S0_5 -->
<g id="edge50" class="edge"><title>S0_4&#45;&gt;S0_5</title>
<path style="fill:none;stroke:black;" d="M520,-220C523,-220 526,-219 528,-219 569,-217 581,-217 624,-219"/>
<polygon style="fill:black;stroke:black;" points="623.701,-222.488 634,-220 624.398,-215.522 623.701,-222.488"/>
<text text-anchor="middle" x="577" y="-225.4" style="font-family:Times New Roman;font-size:14.00;">fuenf : fuenf | 0</text>
</g>
<!-- S0_4&#45;&gt;S0_5 -->
<g id="edge52" class="edge"><title>S0_4&#45;&gt;S0_5</title>
<path style="fill:none;stroke:black;" d="M514,-208C518,-204 523,-200 528,-198 569,-183 586,-183 626,-198 629,-199 631,-200 633,-202"/>
<polygon style="fill:black;stroke:black;" points="630.9,-204.8 641,-208 635.1,-199.2 630.9,-204.8"/>
<text text-anchor="middle" x="577" y="-204.4" style="font-family:Times New Roman;font-size:14.00;">sechs : sechs | 0</text>
</g>
<!-- S0_4&#45;&gt;S0_5 -->
<g id="edge54" class="edge"><title>S0_4&#45;&gt;S0_5</title>
<path style="fill:none;stroke:black;" d="M506,-204C509,-192 516,-175 528,-167 565,-144 590,-144 626,-167 636,-173 642,-184 646,-194"/>
<polygon style="fill:black;stroke:black;" points="642.774,-195.427 649,-204 649.479,-193.416 642.774,-195.427"/>
<text text-anchor="middle" x="577" y="-173.4" style="font-family:Times New Roman;font-size:14.00;">sieben : sieben | 0</text>
</g>
<!-- S0_4&#45;&gt;S0_5 -->
<g id="edge56" class="edge"><title>S0_4&#45;&gt;S0_5</title>
<path style="fill:none;stroke:black;" d="M505,-204C509,-180 517,-139 528,-130 563,-104 592,-104 626,-130 636,-138 644,-170 648,-194"/>
<polygon style="fill:black;stroke:black;" points="644.607,-194.881 650,-204 651.471,-193.508 644.607,-194.881"/>
<text text-anchor="middle" x="577" y="-138.4" style="font-family:Times New Roman;font-size:14.00;">acht : acht | 0</text>
</g>
<!-- S0_4&#45;&gt;S0_5 -->
<g id="edge58" class="edge"><title>S0_4&#45;&gt;S0_5</title>
<path style="fill:none;stroke:black;" d="M503,-204C505,-171 512,-105 528,-91 562,-64 593,-64 626,-91 641,-104 648,-159 650,-194"/>
<polygon style="fill:black;stroke:black;" points="646.522,-194.398 651,-204 653.488,-193.701 646.522,-194.398"/>
<text text-anchor="middle" x="577" y="-98.4" style="font-family:Times New Roman;font-size:14.00;">neun : neun | 0</text>
</g>
<!-- S0_5&#45;&gt;S0_1 -->
<g id="edge14" class="edge"><title>S0_5&#45;&gt;S0_1</title>
<path style="fill:none;stroke:black;" d="M664,-236C689,-263 745,-325 776,-359"/>
<polygon style="fill:black;stroke:black;" points="773.781,-361.779 783,-367 779.049,-357.169 773.781,-361.779"/>
<text text-anchor="middle" x="723" y="-351.4" style="font-family:Times New Roman;font-size:14.00;">meter : meter | 0</text>
</g>
<!-- S0_5&#45;&gt;S0_4 -->
<g id="edge38" class="edge"><title>S0_5&#45;&gt;S0_4</title>
<path style="fill:none;stroke:black;" d="M651,-204C648,-158 640,-40 626,-28 594,-0 561,-0 528,-28 516,-39 507,-143 504,-194"/>
<polygon style="fill:black;stroke:black;" points="500.512,-193.701 503,-204 507.478,-194.398 500.512,-193.701"/>
<text text-anchor="middle" x="577" y="-37.4" style="font-family:Times New Roman;font-size:14.00;">&#45; : &#45; | 0</text>
</g>
</g>
</svg>
