<?xml version="1.0" encoding="UTF-8" standalone="no"?>
<!DOCTYPE svg PUBLIC "-//W3C//DTD SVG 1.0//EN"
 "http://www.w3.org/TR/2001/REC-SVG-20010904/DTD/svg10.dtd" [
 <!ATTLIST svg xmlns:xlink CDATA #FIXED "http://www.w3.org/1999/xlink">
]>
<!-- Generated by Graphviz version 2.20.2 (Wed Jul &#160;9 19:59:08 GMT 2008)
     For user: wolff -->
<!-- Title: GRM Pages: 1 -->
<svg width="880pt" height="633pt"
 viewBox="0.00 0.00 880.00 633.00" xmlns="http://www.w3.org/2000/svg" xmlns:xlink="http://www.w3.org/1999/xlink">
<g id="graph0" class="graph" transform="scale(1 1) rotate(0) translate(4 629)">
<title>GRM</title>
<polygon style="fill:white;stroke:white;" points="-4,4 -4,-629 876,-629 876,4 -4,4"/>
<!-- S0_0 -->
<g id="node1" class="node"><title>S0_0</title>
<ellipse style="fill:none;stroke:black;" cx="58" cy="-203" rx="18" ry="18"/>
<text text-anchor="middle" x="58" y="-198.4" style="font-family:Times New Roman;font-size:14.00;">S</text>
</g>
<!-- S0_0&#45;&gt;S0_0 -->
<g id="edge2" class="edge"><title>S0_0&#45;&gt;S0_0</title>
<path style="fill:none;stroke:black;" d="M46,-217C42,-228 46,-239 58,-239 66,-239 71,-234 71,-227"/>
<polygon style="fill:black;stroke:black;" points="74.4778,-226.602 70,-217 67.5125,-227.299 74.4778,-226.602"/>
<text text-anchor="middle" x="58" y="-242.4" style="font-family:Times New Roman;font-size:14.00;">&lt;PAU&gt; : &lt;PAU&gt; | 0</text>
</g>
<!-- S0_2 -->
<g id="node3" class="node"><title>S0_2</title>
<ellipse style="fill:none;stroke:black;" cx="206" cy="-203" rx="18" ry="18"/>
</g>
<!-- S0_0&#45;&gt;S0_2 -->
<g id="edge6" class="edge"><title>S0_0&#45;&gt;S0_2</title>
<path style="fill:none;stroke:black;" d="M76,-203C102,-203 147,-203 178,-203"/>
<polygon style="fill:black;stroke:black;" points="178,-206.5 188,-203 178,-199.5 178,-206.5"/>
<text text-anchor="middle" x="132" y="-206.4" style="font-family:Times New Roman;font-size:14.00;">breite : breite | 0</text>
</g>
<!-- S0_0&#45;&gt;S0_2 -->
<g id="edge8" class="edge"><title>S0_0&#45;&gt;S0_2</title>
<path style="fill:none;stroke:black;" d="M71,-190C75,-187 80,-184 84,-183 125,-170 140,-170 180,-183 182,-183 183,-184 184,-184"/>
<polygon style="fill:black;stroke:black;" points="182.738,-187.365 193,-190 186.621,-181.541 182.738,-187.365"/>
<text text-anchor="middle" x="132" y="-187.4" style="font-family:Times New Roman;font-size:14.00;">laenge : laenge | 0</text>
</g>
<!-- S0_1 -->
<g id="node2" class="node"><title>S0_1</title>
<ellipse style="fill:none;stroke:black;" cx="814" cy="-395" rx="18" ry="18"/>
<ellipse style="fill:none;stroke:black;" cx="814" cy="-395" rx="22" ry="22"/>
<text text-anchor="middle" x="814" y="-390.4" style="font-family:Times New Roman;font-size:14.00;">F</text>
</g>
<!-- S0_1&#45;&gt;S0_1 -->
<g id="edge4" class="edge"><title>S0_1&#45;&gt;S0_1</title>
<path style="fill:none;stroke:black;" d="M801,-413C799,-424 803,-435 814,-435 821,-435 826,-430 827,-423"/>
<polygon style="fill:black;stroke:black;" points="830.5,-423 827,-413 823.5,-423 830.5,-423"/>
<text text-anchor="middle" x="814" y="-438.4" style="font-family:Times New Roman;font-size:14.00;">&lt;PAU&gt; : &lt;PAU&gt; | 0</text>
</g>
<!-- S0_3 -->
<g id="node4" class="node"><title>S0_3</title>
<ellipse style="fill:none;stroke:black;" cx="356" cy="-203" rx="18" ry="18"/>
<text text-anchor="middle" x="356" y="-198.4" style="font-family:Times New Roman;font-size:14.00;">A</text>
</g>
<!-- S0_2&#45;&gt;S0_3 -->
<g id="edge22" class="edge"><title>S0_2&#45;&gt;S0_3</title>
<path style="fill:none;stroke:black;" d="M208,-221C212,-260 222,-348 232,-357 266,-385 297,-385 330,-357 340,-349 349,-273 353,-231"/>
<polygon style="fill:black;stroke:black;" points="356.488,-231.299 354,-221 349.522,-230.602 356.488,-231.299"/>
<text text-anchor="middle" x="281" y="-381.4" style="font-family:Times New Roman;font-size:14.00;">drei : drei | 0</text>
</g>
<!-- S0_2&#45;&gt;S0_3 -->
<g id="edge24" class="edge"><title>S0_2&#45;&gt;S0_3</title>
<path style="fill:none;stroke:black;" d="M208,-221C210,-251 217,-306 232,-318 250,-331 313,-331 330,-318 343,-307 350,-262 354,-231"/>
<polygon style="fill:black;stroke:black;" points="357.488,-231.299 355,-221 350.522,-230.602 357.488,-231.299"/>
<text text-anchor="middle" x="281" y="-330.4" style="font-family:Times New Roman;font-size:14.00;">vier : vier | 0</text>
</g>
<!-- S0_2&#45;&gt;S0_3 -->
<g id="edge26" class="edge"><title>S0_2&#45;&gt;S0_3</title>
<path style="fill:none;stroke:black;" d="M210,-221C214,-241 223,-272 232,-279 250,-291 313,-291 330,-279 338,-273 346,-250 350,-231"/>
<polygon style="fill:black;stroke:black;" points="353.471,-231.492 352,-221 346.607,-230.119 353.471,-231.492"/>
<text text-anchor="middle" x="281" y="-291.4" style="font-family:Times New Roman;font-size:14.00;">fuenf : fuenf | 0</text>
</g>
<!-- S0_2&#45;&gt;S0_3 -->
<g id="edge28" class="edge"><title>S0_2&#45;&gt;S0_3</title>
<path style="fill:none;stroke:black;" d="M214,-220C218,-227 224,-235 232,-240 271,-260 292,-260 330,-240 335,-237 339,-233 343,-228"/>
<polygon style="fill:black;stroke:black;" points="345.8,-230.1 349,-220 340.2,-225.9 345.8,-230.1"/>
<text text-anchor="middle" x="281" y="-258.4" style="font-family:Times New Roman;font-size:14.00;">sechs : sechs | 0</text>
</g>
<!-- S0_2&#45;&gt;S0_3 -->
<g id="edge30" class="edge"><title>S0_2&#45;&gt;S0_3</title>
<path style="fill:none;stroke:black;" d="M224,-203C250,-203 297,-203 328,-203"/>
<polygon style="fill:black;stroke:black;" points="328,-206.5 338,-203 328,-199.5 328,-206.5"/>
<text text-anchor="middle" x="281" y="-206.4" style="font-family:Times New Roman;font-size:14.00;">sieben : sieben | 0</text>
</g>
<!-- S0_2&#45;&gt;S0_3 -->
<g id="edge32" class="edge"><title>S0_2&#45;&gt;S0_3</title>
<path style="fill:none;stroke:black;" d="M219,-190C223,-187 228,-184 232,-183 274,-169 289,-169 330,-183 332,-183 333,-184 334,-184"/>
<polygon style="fill:black;stroke:black;" points="332.738,-187.365 343,-190 336.621,-181.541 332.738,-187.365"/>
<text text-anchor="middle" x="281" y="-187.4" style="font-family:Times New Roman;font-size:14.00;">acht : acht | 0</text>
</g>
<!-- S0_2&#45;&gt;S0_3 -->
<g id="edge34" class="edge"><title>S0_2&#45;&gt;S0_3</title>
<path style="fill:none;stroke:black;" d="M210,-185C214,-174 221,-160 232,-153 270,-131 293,-131 330,-153 339,-158 344,-167 348,-176"/>
<polygon style="fill:black;stroke:black;" points="344.74,-177.283 352,-185 351.137,-174.44 344.74,-177.283"/>
<text text-anchor="middle" x="281" y="-159.4" style="font-family:Times New Roman;font-size:14.00;">neun : neun | 0</text>
</g>
<!-- S0_2&#45;&gt;S0_3 -->
<g id="edge16" class="edge"><title>S0_2&#45;&gt;S0_3</title>
<path style="fill:none;stroke:black;" d="M208,-185C212,-160 220,-117 232,-107 267,-81 296,-81 330,-107 341,-116 348,-150 352,-175"/>
<polygon style="fill:black;stroke:black;" points="348.607,-175.881 354,-185 355.471,-174.508 348.607,-175.881"/>
<text text-anchor="middle" x="281" y="-113.4" style="font-family:Times New Roman;font-size:14.00;">null : null | 0</text>
</g>
<!-- S0_2&#45;&gt;S0_3 -->
<g id="edge18" class="edge"><title>S0_2&#45;&gt;S0_3</title>
<path style="fill:none;stroke:black;" d="M207,-185C209,-152 215,-83 232,-68 266,-41 297,-41 330,-68 346,-82 353,-140 355,-175"/>
<polygon style="fill:black;stroke:black;" points="351.5,-175 355,-185 358.5,-175 351.5,-175"/>
<text text-anchor="middle" x="281" y="-75.4" style="font-family:Times New Roman;font-size:14.00;">eins : eins | 0</text>
</g>
<!-- S0_2&#45;&gt;S0_3 -->
<g id="edge20" class="edge"><title>S0_2&#45;&gt;S0_3</title>
<path style="fill:none;stroke:black;" d="M207,-185C211,-142 221,-38 232,-28 265,-0 298,-0 330,-28 341,-37 350,-127 354,-175"/>
<polygon style="fill:black;stroke:black;" points="350.522,-175.398 355,-185 357.488,-174.701 350.522,-175.398"/>
<text text-anchor="middle" x="281" y="-36.4" style="font-family:Times New Roman;font-size:14.00;">zwei : zwei | 0</text>
</g>
<!-- S0_4 -->
<g id="node5" class="node"><title>S0_4</title>
<ellipse style="fill:none;stroke:black;" cx="518" cy="-395" rx="18" ry="18"/>
<text text-anchor="middle" x="518" y="-390.4" style="font-family:Times New Roman;font-size:14.00;">B</text>
</g>
<!-- S0_3&#45;&gt;S0_4 -->
<g id="edge10" class="edge"><title>S0_3&#45;&gt;S0_4</title>
<path style="fill:none;stroke:black;" d="M368,-217C396,-250 466,-334 499,-373"/>
<polygon style="fill:black;stroke:black;" points="496.781,-375.779 506,-381 502.049,-371.169 496.781,-375.779"/>
<text text-anchor="middle" x="437" y="-365.4" style="font-family:Times New Roman;font-size:14.00;">komma : komma | 0</text>
</g>
<!-- S0_5 -->
<g id="node6" class="node"><title>S0_5</title>
<ellipse style="fill:none;stroke:black;" cx="668" cy="-395" rx="18" ry="18"/>
<text text-anchor="middle" x="668" y="-390.4" style="font-family:Times New Roman;font-size:14.00;">C</text>
</g>
<!-- S0_3&#45;&gt;S0_5 -->
<g id="edge14" class="edge"><title>S0_3&#45;&gt;S0_5</title>
<path style="fill:none;stroke:black;" d="M373,-196C422,-178 564,-133 642,-201 655,-211 663,-316 666,-367"/>
<polygon style="fill:black;stroke:black;" points="662.522,-367.398 667,-377 669.488,-366.701 662.522,-367.398"/>
<text text-anchor="middle" x="518" y="-170.4" style="font-family:Times New Roman;font-size:14.00;">&#45; : &#45; | 0</text>
</g>
<!-- S0_4&#45;&gt;S0_5 -->
<g id="edge38" class="edge"><title>S0_4&#45;&gt;S0_5</title>
<path style="fill:none;stroke:black;" d="M519,-413C522,-459 531,-576 544,-588 577,-616 610,-616 642,-588 655,-577 663,-474 666,-423"/>
<polygon style="fill:black;stroke:black;" points="669.488,-423.299 667,-413 662.522,-422.602 669.488,-423.299"/>
<text text-anchor="middle" x="593" y="-612.4" style="font-family:Times New Roman;font-size:14.00;">null : null | 0</text>
</g>
<!-- S0_4&#45;&gt;S0_5 -->
<g id="edge40" class="edge"><title>S0_4&#45;&gt;S0_5</title>
<path style="fill:none;stroke:black;" d="M520,-413C524,-452 534,-540 544,-549 561,-563 626,-563 642,-549 652,-541 661,-465 665,-423"/>
<polygon style="fill:black;stroke:black;" points="668.488,-423.299 666,-413 661.522,-422.602 668.488,-423.299"/>
<text text-anchor="middle" x="593" y="-562.4" style="font-family:Times New Roman;font-size:14.00;">eins : eins | 0</text>
</g>
<!-- S0_4&#45;&gt;S0_5 -->
<g id="edge42" class="edge"><title>S0_4&#45;&gt;S0_5</title>
<path style="fill:none;stroke:black;" d="M520,-413C522,-443 529,-498 544,-510 562,-523 625,-523 642,-510 655,-499 662,-454 666,-423"/>
<polygon style="fill:black;stroke:black;" points="669.488,-423.299 667,-413 662.522,-422.602 669.488,-423.299"/>
<text text-anchor="middle" x="593" y="-522.4" style="font-family:Times New Roman;font-size:14.00;">zwei : zwei | 0</text>
</g>
<!-- S0_4&#45;&gt;S0_5 -->
<g id="edge44" class="edge"><title>S0_4&#45;&gt;S0_5</title>
<path style="fill:none;stroke:black;" d="M522,-413C526,-433 535,-464 544,-471 562,-483 625,-483 642,-471 650,-465 658,-442 662,-423"/>
<polygon style="fill:black;stroke:black;" points="665.471,-423.492 664,-413 658.607,-422.119 665.471,-423.492"/>
<text text-anchor="middle" x="593" y="-483.4" style="font-family:Times New Roman;font-size:14.00;">drei : drei | 0</text>
</g>
<!-- S0_4&#45;&gt;S0_5 -->
<g id="edge46" class="edge"><title>S0_4&#45;&gt;S0_5</title>
<path style="fill:none;stroke:black;" d="M526,-412C530,-419 536,-427 544,-432 583,-452 604,-452 642,-432 647,-429 651,-425 655,-420"/>
<polygon style="fill:black;stroke:black;" points="657.8,-422.1 661,-412 652.2,-417.9 657.8,-422.1"/>
<text text-anchor="middle" x="593" y="-450.4" style="font-family:Times New Roman;font-size:14.00;">vier : vier | 0</text>
</g>
<!-- S0_4&#45;&gt;S0_5 -->
<g id="edge48" class="edge"><title>S0_4&#45;&gt;S0_5</title>
<path style="fill:none;stroke:black;" d="M536,-395C562,-395 609,-395 640,-395"/>
<polygon style="fill:black;stroke:black;" points="640,-398.5 650,-395 640,-391.5 640,-398.5"/>
<text text-anchor="middle" x="593" y="-398.4" style="font-family:Times New Roman;font-size:14.00;">fuenf : fuenf | 0</text>
</g>
<!-- S0_4&#45;&gt;S0_5 -->
<g id="edge50" class="edge"><title>S0_4&#45;&gt;S0_5</title>
<path style="fill:none;stroke:black;" d="M531,-382C535,-379 540,-376 544,-375 586,-360 601,-360 642,-375 644,-375 645,-376 646,-376"/>
<polygon style="fill:black;stroke:black;" points="644.738,-379.365 655,-382 648.621,-373.541 644.738,-379.365"/>
<text text-anchor="middle" x="593" y="-378.4" style="font-family:Times New Roman;font-size:14.00;">sechs : sechs | 0</text>
</g>
<!-- S0_4&#45;&gt;S0_5 -->
<g id="edge52" class="edge"><title>S0_4&#45;&gt;S0_5</title>
<path style="fill:none;stroke:black;" d="M522,-377C526,-365 532,-350 544,-343 582,-320 605,-320 642,-343 651,-348 657,-358 661,-367"/>
<polygon style="fill:black;stroke:black;" points="657.774,-368.427 664,-377 664.479,-366.416 657.774,-368.427"/>
<text text-anchor="middle" x="593" y="-346.4" style="font-family:Times New Roman;font-size:14.00;">sieben : sieben | 0</text>
</g>
<!-- S0_4&#45;&gt;S0_5 -->
<g id="edge54" class="edge"><title>S0_4&#45;&gt;S0_5</title>
<path style="fill:none;stroke:black;" d="M521,-377C525,-353 533,-313 544,-305 579,-278 608,-278 642,-305 652,-312 660,-343 664,-367"/>
<polygon style="fill:black;stroke:black;" points="660.522,-367.398 665,-377 667.488,-366.701 660.522,-367.398"/>
<text text-anchor="middle" x="593" y="-309.4" style="font-family:Times New Roman;font-size:14.00;">acht : acht | 0</text>
</g>
<!-- S0_4&#45;&gt;S0_5 -->
<g id="edge56" class="edge"><title>S0_4&#45;&gt;S0_5</title>
<path style="fill:none;stroke:black;" d="M519,-377C521,-344 528,-277 544,-264 578,-236 609,-236 642,-264 657,-276 664,-332 666,-367"/>
<polygon style="fill:black;stroke:black;" points="662.522,-367.398 667,-377 669.488,-366.701 662.522,-367.398"/>
<text text-anchor="middle" x="593" y="-268.4" style="font-family:Times New Roman;font-size:14.00;">neun : neun | 0</text>
</g>
<!-- S0_5&#45;&gt;S0_1 -->
<g id="edge12" class="edge"><title>S0_5&#45;&gt;S0_1</title>
<path style="fill:none;stroke:black;" d="M686,-395C710,-395 752,-395 782,-395"/>
<polygon style="fill:black;stroke:black;" points="782,-398.5 792,-395 782,-391.5 782,-398.5"/>
<text text-anchor="middle" x="739" y="-398.4" style="font-family:Times New Roman;font-size:14.00;">meter : meter | 0</text>
</g>
<!-- S0_5&#45;&gt;S0_4 -->
<g id="edge36" class="edge"><title>S0_5&#45;&gt;S0_4</title>
<path style="fill:none;stroke:black;" d="M667,-377C663,-334 654,-231 642,-221 610,-192 577,-192 544,-221 534,-230 524,-320 520,-367"/>
<polygon style="fill:black;stroke:black;" points="516.512,-366.701 519,-377 523.478,-367.398 516.512,-366.701"/>
<text text-anchor="middle" x="593" y="-226.4" style="font-family:Times New Roman;font-size:14.00;">&#45; : &#45; | 0</text>
</g>
</g>
</svg>
