<?xml version="1.0" encoding="UTF-8" standalone="no"?>
<!DOCTYPE svg PUBLIC "-//W3C//DTD SVG 1.0//EN"
 "http://www.w3.org/TR/2001/REC-SVG-20010904/DTD/svg10.dtd" [
 <!ATTLIST svg xmlns:xlink CDATA #FIXED "http://www.w3.org/1999/xlink">
]>
<!-- Generated by Graphviz version 2.20.2 (Wed Jul &#160;9 19:59:08 GMT 2008)
     For user: wolff -->
<!-- Title: GRM Pages: 1 -->
<svg width="310pt" height="86pt"
 viewBox="0.00 0.00 310.00 86.00" xmlns="http://www.w3.org/2000/svg" xmlns:xlink="http://www.w3.org/1999/xlink">
<g id="graph0" class="graph" transform="scale(1 1) rotate(0) translate(4 82)">
<title>GRM</title>
<polygon style="fill:white;stroke:white;" points="-4,4 -4,-82 306,-82 306,4 -4,4"/>
<!-- S0_0 -->
<g id="node1" class="node"><title>S0_0</title>
<ellipse style="fill:none;stroke:black;" cx="38" cy="-22" rx="18" ry="18"/>
<text text-anchor="middle" x="38" y="-17.4" style="font-family:Times New Roman;font-size:14.00;">S</text>
</g>
<!-- S0_0&#45;&gt;S0_0 -->
<g id="edge2" class="edge"><title>S0_0&#45;&gt;S0_0</title>
<path style="fill:none;stroke:black;" d="M23,-32C13,-44 18,-58 38,-58 53,-58 60,-50 58,-41"/>
<polygon style="fill:black;stroke:black;" points="60.916,-39.0418 53,-32 54.7969,-42.4414 60.916,-39.0418"/>
<text text-anchor="middle" x="38" y="-61.4" style="font-family:Times New Roman;font-size:14.00;">&lt;PAU&gt; : &#45; | 0</text>
</g>
<!-- S0_1 -->
<g id="node2" class="node"><title>S0_1</title>
<ellipse style="fill:none;stroke:black;" cx="264" cy="-22" rx="18" ry="18"/>
<ellipse style="fill:none;stroke:black;" cx="264" cy="-22" rx="22" ry="22"/>
<text text-anchor="middle" x="264" y="-17.4" style="font-family:Times New Roman;font-size:14.00;">F</text>
</g>
<!-- S0_0&#45;&gt;S0_1 -->
<g id="edge6" class="edge"><title>S0_0&#45;&gt;S0_1</title>
<path style="fill:none;stroke:black;" d="M56,-22C94,-22 183,-22 232,-22"/>
<polygon style="fill:black;stroke:black;" points="232,-25.5001 242,-22 232,-18.5001 232,-25.5001"/>
<text text-anchor="middle" x="149" y="-25.4" style="font-family:Times New Roman;font-size:14.00;">computer : __WAKEUP__ | 0</text>
</g>
<!-- S0_1&#45;&gt;S0_1 -->
<g id="edge4" class="edge"><title>S0_1&#45;&gt;S0_1</title>
<path style="fill:none;stroke:black;" d="M247,-36C238,-48 244,-62 264,-62 279,-62 286,-54 285,-45"/>
<polygon style="fill:black;stroke:black;" points="288.26,-43.7166 281,-36 281.863,-46.5596 288.26,-43.7166"/>
<text text-anchor="middle" x="264" y="-65.4" style="font-family:Times New Roman;font-size:14.00;">&lt;PAU&gt; : &#45; | 0</text>
</g>
</g>
</svg>
