<?xml version="1.0" encoding="UTF-8" standalone="no"?>
<!DOCTYPE svg PUBLIC "-//W3C//DTD SVG 1.0//EN"
 "http://www.w3.org/TR/2001/REC-SVG-20010904/DTD/svg10.dtd" [
 <!ATTLIST svg xmlns:xlink CDATA #FIXED "http://www.w3.org/1999/xlink">
]>
<!-- Generated by Graphviz version 2.20.2 (Wed Jul &#160;9 19:59:08 GMT 2008)
     For user: wolff -->
<!-- Title: GRM Pages: 1 -->
<svg width="202pt" height="61pt"
 viewBox="0.00 0.00 202.00 61.00" xmlns="http://www.w3.org/2000/svg" xmlns:xlink="http://www.w3.org/1999/xlink">
<g id="graph0" class="graph" transform="scale(1 1) rotate(0) translate(4 57)">
<title>GRM</title>
<polygon style="fill:white;stroke:white;" points="-4,4 -4,-57 198,-57 198,4 -4,4"/>
<!-- S0_0 -->
<g id="node1" class="node"><title>S0_0</title>
<ellipse style="fill:none;stroke:black;" cx="22" cy="-31" rx="18" ry="18"/>
<ellipse style="fill:none;stroke:black;" cx="22" cy="-31" rx="22" ry="22"/>
<text text-anchor="middle" x="22" y="-26.4" style="font-family:Times New Roman;font-size:14.00;">S</text>
</g>
<!-- S0_1 -->
<g id="node2" class="node"><title>S0_1</title>
<ellipse style="fill:none;stroke:black;" cx="172" cy="-31" rx="18" ry="18"/>
<ellipse style="fill:none;stroke:black;" cx="172" cy="-31" rx="22" ry="22"/>
<text text-anchor="middle" x="172" y="-26.4" style="font-family:Times New Roman;font-size:14.00;">1</text>
</g>
<!-- S0_0&#45;&gt;S0_1 -->
<g id="edge2" class="edge"><title>S0_0&#45;&gt;S0_1</title>
<path style="fill:none;stroke:black;" d="M44,-31C70,-31 111,-31 140,-31"/>
<polygon style="fill:black;stroke:black;" points="140,-34.5001 150,-31 140,-27.5001 140,-34.5001"/>
<text text-anchor="middle" x="97" y="-34.4" style="font-family:Times New Roman;font-size:14.00;">__WAKEUP__</text>
</g>
<!-- S0_1&#45;&gt;S0_0 -->
<g id="edge4" class="edge"><title>S0_1&#45;&gt;S0_0</title>
<path style="fill:none;stroke:black;" d="M155,-17C151,-14 147,-12 142,-11 104,-0 91,-0 52,-11 51,-11 49,-12 48,-12"/>
<polygon style="fill:black;stroke:black;" points="46.0418,-9.08397 39,-17 49.4414,-15.2031 46.0418,-9.08397"/>
<text text-anchor="middle" x="97" y="-15.4" style="font-family:Times New Roman;font-size:14.00;">__SLEEP__</text>
</g>
</g>
</svg>
